<svg id="visual" viewBox="0 0 900 600" width="900" height="600" xmlns="http://www.w3.org/2000/svg" xmlns:xlink="http://www.w3.org/1999/xlink" version="1.1"><path d="M0 223L129 139L257 139L386 175L514 163L643 91L771 133L900 151L900 0L771 0L643 0L514 0L386 0L257 0L129 0L0 0Z" fill="#06182a"></path><path d="M0 343L129 349L257 355L386 313L514 331L643 307L771 367L900 301L900 149L771 131L643 89L514 161L386 173L257 137L129 137L0 221Z" fill="#05223e"></path><path d="M0 403L129 433L257 445L386 433L514 445L643 451L771 445L900 439L900 299L771 365L643 305L514 329L386 311L257 353L129 347L0 341Z" fill="#062d53"></path><path d="M0 511L129 529L257 547L386 505L514 511L643 553L771 517L900 541L900 437L771 443L643 449L514 443L386 431L257 443L129 431L0 401Z" fill="#0c3768"></path><path d="M0 601L129 601L257 601L386 601L514 601L643 601L771 601L900 601L900 539L771 515L643 551L514 509L386 503L257 545L129 527L0 509Z" fill="#18417e"></path></svg>